<?xml version="1.0" encoding="UTF-8"?>
<svg xmlns="http://www.w3.org/2000/svg" xmlns:xlink="http://www.w3.org/1999/xlink" width="64px" height="64px" viewBox="0 0 64 64" version="1.1">
<g id="surface1">
<rect x="0" y="0" width="64" height="64" style="fill:rgb(0%,0%,0%);fill-opacity:1;stroke:none;"/>
<path style=" stroke:none;fill-rule:nonzero;fill:rgb(100%,100%,100%);fill-opacity:1;" d="M 32 2 C 15.429688 2 2 15.429688 2 32 C 2 48.570312 15.429688 62 32 62 C 48.570312 62 62 48.570312 62 32 C 62 15.429688 48.570312 2 32 2 Z M 32 9.5 C 44.425781 9.5 54.5 19.574219 54.5 32 C 54.5 44.425781 44.425781 54.5 32 54.5 C 19.574219 54.5 9.5 44.425781 9.5 32 C 9.5 19.574219 19.574219 9.5 32 9.5 Z M 21.921875 17 C 21.800781 17 21.671875 17.015625 21.539062 17.039062 L 21.539062 17.035156 C 19.25 17.464844 15.882812 21.378906 17.367188 22.863281 L 26.511719 32.003906 L 17.367188 41.144531 C 15.539062 42.972656 21.027344 48.460938 22.855469 46.632812 L 32 37.488281 L 41.144531 46.632812 C 42.972656 48.460938 48.460938 42.972656 46.632812 41.144531 L 37.488281 32.003906 L 46.632812 22.863281 C 48.460938 21.035156 42.972656 15.550781 41.144531 17.378906 L 32 26.519531 L 22.855469 17.378906 C 22.597656 17.125 22.285156 17.003906 21.921875 17 Z M 21.921875 17 "/>
</g>
</svg>
